<svg width="512" height="512" viewBox="0 0 512 512" fill="none" xmlns="http://www.w3.org/2000/svg">
<path d="M430.8 185.808C429.577 182.895 427.519 180.408 424.885 178.663C422.251 176.917 419.16 175.991 416 176H96C92.8403 175.991 89.7486 176.917 87.1147 178.663C84.4809 180.408 82.4228 182.895 81.2 185.808C80.0483 188.764 79.7572 191.986 80.3603 195.101C80.9634 198.215 82.4361 201.096 84.608 203.408L244.608 363.408C247.665 366.36 251.75 368.01 256 368.01C260.25 368.01 264.335 366.36 267.392 363.408L427.392 203.408C429.564 201.096 431.037 198.215 431.64 195.101C432.243 191.986 431.952 188.764 430.8 185.808Z" fill="#0A1039"/>
</svg>
