<svg width="542" height="187" viewBox="0 0 542 187" fill="none" xmlns="http://www.w3.org/2000/svg">
<path d="M187.427 155L179.927 133.85H184.757L190.127 150.17H188.837L194.687 133.85H198.107L203.477 150.17H202.277L207.977 133.85H212.507L204.947 155H201.137L195.947 139.97H196.637L191.267 155H187.427ZM220.683 155.33C218.043 155.33 215.983 154.62 214.503 153.2C213.023 151.78 212.283 149.85 212.283 147.41C212.283 145.83 212.593 144.45 213.213 143.27C213.853 142.09 214.733 141.17 215.853 140.51C216.993 139.83 218.323 139.49 219.843 139.49C221.343 139.49 222.593 139.81 223.593 140.45C224.613 141.09 225.373 141.99 225.873 143.15C226.393 144.29 226.653 145.62 226.653 147.14V148.19H216.003V145.94H223.353L222.843 146.36C222.843 145.1 222.583 144.15 222.063 143.51C221.563 142.85 220.833 142.52 219.873 142.52C218.813 142.52 217.993 142.91 217.413 143.69C216.853 144.47 216.573 145.59 216.573 147.05V147.53C216.573 149.01 216.933 150.11 217.653 150.83C218.393 151.55 219.453 151.91 220.833 151.91C221.653 151.91 222.423 151.81 223.143 151.61C223.883 151.39 224.583 151.05 225.243 150.59L226.503 153.59C225.743 154.15 224.863 154.58 223.863 154.88C222.883 155.18 221.823 155.33 220.683 155.33ZM238.827 155.33C237.607 155.33 236.517 155.03 235.557 154.43C234.617 153.83 233.987 153.03 233.667 152.03H233.997V155H229.527V132.92H234.057V142.64H233.667C234.007 141.68 234.647 140.92 235.587 140.36C236.547 139.78 237.627 139.49 238.827 139.49C240.167 139.49 241.337 139.81 242.337 140.45C243.337 141.09 244.117 142 244.677 143.18C245.257 144.36 245.547 145.78 245.547 147.44C245.547 149.08 245.257 150.49 244.677 151.67C244.117 152.85 243.327 153.76 242.307 154.4C241.307 155.02 240.147 155.33 238.827 155.33ZM237.477 151.91C238.497 151.91 239.337 151.55 239.997 150.83C240.657 150.11 240.987 148.98 240.987 147.44C240.987 145.9 240.657 144.76 239.997 144.02C239.337 143.28 238.497 142.91 237.477 142.91C236.437 142.91 235.587 143.27 234.927 143.99C234.287 144.71 233.967 145.84 233.967 147.38C233.967 148.92 234.287 150.06 234.927 150.8C235.587 151.54 236.437 151.91 237.477 151.91ZM257.249 155V133.85H265.319C267.779 133.85 269.859 134.27 271.559 135.11C273.259 135.95 274.539 137.16 275.399 138.74C276.279 140.3 276.719 142.19 276.719 144.41C276.719 146.61 276.279 148.5 275.399 150.08C274.539 151.66 273.259 152.88 271.559 153.74C269.859 154.58 267.779 155 265.319 155H257.249ZM261.929 151.16H265.049C267.409 151.16 269.159 150.61 270.299 149.51C271.459 148.39 272.039 146.69 272.039 144.41C272.039 142.11 271.459 140.41 270.299 139.31C269.159 138.21 267.409 137.66 265.049 137.66H261.929V151.16ZM287.744 155.33C285.104 155.33 283.044 154.62 281.564 153.2C280.084 151.78 279.344 149.85 279.344 147.41C279.344 145.83 279.654 144.45 280.274 143.27C280.914 142.09 281.794 141.17 282.914 140.51C284.054 139.83 285.384 139.49 286.904 139.49C288.404 139.49 289.654 139.81 290.654 140.45C291.674 141.09 292.434 141.99 292.934 143.15C293.454 144.29 293.714 145.62 293.714 147.14V148.19H283.064V145.94H290.414L289.904 146.36C289.904 145.1 289.644 144.15 289.124 143.51C288.624 142.85 287.894 142.52 286.934 142.52C285.874 142.52 285.054 142.91 284.474 143.69C283.914 144.47 283.634 145.59 283.634 147.05V147.53C283.634 149.01 283.994 150.11 284.714 150.83C285.454 151.55 286.514 151.91 287.894 151.91C288.714 151.91 289.484 151.81 290.204 151.61C290.944 151.39 291.644 151.05 292.304 150.59L293.564 153.59C292.804 154.15 291.924 154.58 290.924 154.88C289.944 155.18 288.884 155.33 287.744 155.33ZM302.198 155.33C300.838 155.33 299.598 155.18 298.478 154.88C297.358 154.58 296.408 154.16 295.628 153.62L296.798 150.62C297.578 151.1 298.438 151.48 299.378 151.76C300.338 152.04 301.288 152.18 302.228 152.18C303.108 152.18 303.758 152.04 304.178 151.76C304.598 151.48 304.808 151.1 304.808 150.62C304.808 150.22 304.668 149.91 304.388 149.69C304.128 149.47 303.718 149.31 303.158 149.21L300.068 148.64C298.768 148.38 297.778 147.9 297.098 147.2C296.418 146.5 296.078 145.59 296.078 144.47C296.078 143.49 296.338 142.63 296.858 141.89C297.398 141.13 298.168 140.54 299.168 140.12C300.168 139.7 301.338 139.49 302.678 139.49C303.818 139.49 304.898 139.63 305.918 139.91C306.938 140.19 307.808 140.62 308.528 141.2L307.298 144.11C306.678 143.65 305.958 143.28 305.138 143C304.338 142.72 303.568 142.58 302.828 142.58C301.868 142.58 301.178 142.74 300.758 143.06C300.338 143.36 300.128 143.75 300.128 144.23C300.128 144.59 300.248 144.89 300.488 145.13C300.748 145.37 301.138 145.55 301.658 145.67L304.778 146.24C306.118 146.48 307.138 146.93 307.838 147.59C308.538 148.25 308.888 149.16 308.888 150.32C308.888 151.38 308.608 152.28 308.048 153.02C307.488 153.76 306.698 154.33 305.678 154.73C304.678 155.13 303.518 155.33 302.198 155.33ZM311.705 155V139.79H316.235V155H311.705ZM311.525 137.3V133.07H316.385V137.3H311.525ZM327.167 161.72C325.707 161.72 324.407 161.57 323.267 161.27C322.127 160.99 321.107 160.56 320.207 159.98L321.077 156.74C321.637 157.1 322.227 157.39 322.847 157.61C323.487 157.85 324.137 158.02 324.797 158.12C325.477 158.24 326.147 158.3 326.807 158.3C328.147 158.3 329.147 157.98 329.807 157.34C330.467 156.7 330.797 155.79 330.797 154.61V151.46H331.097C330.777 152.42 330.137 153.19 329.177 153.77C328.217 154.35 327.137 154.64 325.937 154.64C324.577 154.64 323.387 154.33 322.367 153.71C321.367 153.09 320.587 152.21 320.027 151.07C319.467 149.93 319.187 148.59 319.187 147.05C319.187 145.51 319.467 144.17 320.027 143.03C320.587 141.89 321.367 141.02 322.367 140.42C323.387 139.8 324.577 139.49 325.937 139.49C327.157 139.49 328.227 139.78 329.147 140.36C330.087 140.92 330.717 141.67 331.037 142.61L330.797 142.49L331.097 139.79H335.477C335.397 140.45 335.337 141.12 335.297 141.8C335.257 142.46 335.237 143.11 335.237 143.75V154.1C335.237 156.56 334.547 158.44 333.167 159.74C331.787 161.06 329.787 161.72 327.167 161.72ZM327.287 151.22C328.347 151.22 329.187 150.86 329.807 150.14C330.427 149.42 330.737 148.39 330.737 147.05C330.737 145.71 330.427 144.69 329.807 143.99C329.187 143.27 328.347 142.91 327.287 142.91C326.187 142.91 325.317 143.27 324.677 143.99C324.057 144.69 323.747 145.71 323.747 147.05C323.747 148.39 324.057 149.42 324.677 150.14C325.317 150.86 326.187 151.22 327.287 151.22ZM338.922 155V143.75C338.922 143.11 338.902 142.46 338.862 141.8C338.822 141.12 338.762 140.45 338.682 139.79H343.032L343.362 142.61H343.002C343.502 141.61 344.212 140.84 345.132 140.3C346.052 139.76 347.122 139.49 348.342 139.49C350.122 139.49 351.452 140.01 352.332 141.05C353.232 142.07 353.682 143.66 353.682 145.82V155H349.152V146.03C349.152 144.93 348.952 144.15 348.552 143.69C348.152 143.23 347.552 143 346.752 143C345.752 143 344.952 143.32 344.352 143.96C343.752 144.58 343.452 145.42 343.452 146.48V155H338.922Z" fill="#0A1039"/>
<path d="M294.394 21C305.439 21 314.394 29.9543 314.394 41V121H294.394V21Z" fill="url(#paint0_linear_9_2)"/>
<path d="M369.394 101C369.394 112.046 360.439 121 349.394 121H294.394V101H369.394Z" fill="url(#paint1_linear_9_2)"/>
<path d="M174.394 41C174.394 29.9543 183.348 21 194.394 21H274.394C274.394 32.0457 265.439 41 254.394 41H174.394Z" fill="url(#paint2_linear_9_2)"/>
<path d="M174.394 81C174.394 69.9543 183.348 61 194.394 61H274.394C274.394 72.0457 265.439 81 254.394 81H174.394Z" fill="url(#paint3_linear_9_2)"/>
<path d="M174.394 121C174.394 109.954 183.348 101 194.394 101H274.394C274.394 112.046 265.439 121 254.394 121H174.394Z" fill="url(#paint4_linear_9_2)"/>
<path fill-rule="evenodd" clip-rule="evenodd" d="M147.517 21L89.9957 65.306L107.39 78.7042L148.41 47.1089L147.517 21ZM60.7979 87.7955L77.343 75.0518L77.6084 75.2561L61.0634 88L60.7979 87.7955Z" fill="url(#paint5_linear_9_2)"/>
<path fill-rule="evenodd" clip-rule="evenodd" d="M147.517 155L89.4242 110.254L106.818 96.8554L148.41 128.891L147.517 155ZM77.0368 100.304L76.7714 100.508L60.7979 88.2045L61.0634 88L77.0368 100.304Z" fill="url(#paint6_linear_9_2)"/>
<path fill-rule="evenodd" clip-rule="evenodd" d="M77.0368 100.304L61.0634 88L77.6084 75.2561L78.1923 74.8064L95.3213 88L78.1923 101.194L77.0368 100.304Z" fill="url(#paint7_linear_9_2)"/>
<path fill-rule="evenodd" clip-rule="evenodd" d="M117.54 88.2045L134.669 75.0109L151.798 88.2045L134.669 101.398L117.54 88.2045Z" fill="url(#paint8_linear_9_2)"/>
<path fill-rule="evenodd" clip-rule="evenodd" d="M393.674 21L451.196 65.306L433.802 78.7042L392.782 47.1089L393.674 21ZM480.394 87.7955L463.849 75.0518L463.583 75.2561L480.128 88L480.394 87.7955Z" fill="url(#paint9_linear_9_2)"/>
<path fill-rule="evenodd" clip-rule="evenodd" d="M393.674 155L451.767 110.254L434.373 96.8554L392.782 128.891L393.674 155ZM464.155 100.304L464.42 100.508L480.394 88.2045L480.128 88L464.155 100.304Z" fill="url(#paint10_linear_9_2)"/>
<path fill-rule="evenodd" clip-rule="evenodd" d="M464.155 100.304L480.128 88L463.583 75.2561L462.999 74.8064L445.87 88L462.999 101.194L464.155 100.304Z" fill="url(#paint11_linear_9_2)"/>
<path fill-rule="evenodd" clip-rule="evenodd" d="M423.652 88.2045L406.523 75.0109L389.394 88.2045L406.523 101.398L423.652 88.2045Z" fill="url(#paint12_linear_9_2)"/>
<defs>
<linearGradient id="paint0_linear_9_2" x1="331.894" y1="21" x2="331.894" y2="121" gradientUnits="userSpaceOnUse">
<stop stop-color="#405AFF"/>
<stop offset="1" stop-color="#0A1039"/>
</linearGradient>
<linearGradient id="paint1_linear_9_2" x1="331.894" y1="21" x2="331.894" y2="121" gradientUnits="userSpaceOnUse">
<stop stop-color="#405AFF"/>
<stop offset="1" stop-color="#0A1039"/>
</linearGradient>
<linearGradient id="paint2_linear_9_2" x1="224.394" y1="21" x2="224.394" y2="121" gradientUnits="userSpaceOnUse">
<stop stop-color="#405AFF"/>
<stop offset="1" stop-color="#0A1039"/>
</linearGradient>
<linearGradient id="paint3_linear_9_2" x1="224.394" y1="21" x2="224.394" y2="121" gradientUnits="userSpaceOnUse">
<stop stop-color="#405AFF"/>
<stop offset="1" stop-color="#0A1039"/>
</linearGradient>
<linearGradient id="paint4_linear_9_2" x1="224.394" y1="21" x2="224.394" y2="121" gradientUnits="userSpaceOnUse">
<stop stop-color="#405AFF"/>
<stop offset="1" stop-color="#0A1039"/>
</linearGradient>
<linearGradient id="paint5_linear_9_2" x1="106.298" y1="21" x2="106.298" y2="155" gradientUnits="userSpaceOnUse">
<stop stop-color="#405AFF"/>
<stop offset="1" stop-color="#0A1039"/>
</linearGradient>
<linearGradient id="paint6_linear_9_2" x1="106.298" y1="21" x2="106.298" y2="155" gradientUnits="userSpaceOnUse">
<stop stop-color="#405AFF"/>
<stop offset="1" stop-color="#0A1039"/>
</linearGradient>
<linearGradient id="paint7_linear_9_2" x1="106.298" y1="21" x2="106.298" y2="155" gradientUnits="userSpaceOnUse">
<stop stop-color="#405AFF"/>
<stop offset="1" stop-color="#0A1039"/>
</linearGradient>
<linearGradient id="paint8_linear_9_2" x1="106.298" y1="21" x2="106.298" y2="155" gradientUnits="userSpaceOnUse">
<stop stop-color="#405AFF"/>
<stop offset="1" stop-color="#0A1039"/>
</linearGradient>
<linearGradient id="paint9_linear_9_2" x1="434.894" y1="21" x2="434.894" y2="155" gradientUnits="userSpaceOnUse">
<stop stop-color="#405AFF"/>
<stop offset="1" stop-color="#0A1039"/>
</linearGradient>
<linearGradient id="paint10_linear_9_2" x1="434.894" y1="21" x2="434.894" y2="155" gradientUnits="userSpaceOnUse">
<stop stop-color="#405AFF"/>
<stop offset="1" stop-color="#0A1039"/>
</linearGradient>
<linearGradient id="paint11_linear_9_2" x1="434.894" y1="21" x2="434.894" y2="155" gradientUnits="userSpaceOnUse">
<stop stop-color="#405AFF"/>
<stop offset="1" stop-color="#0A1039"/>
</linearGradient>
<linearGradient id="paint12_linear_9_2" x1="434.894" y1="21" x2="434.894" y2="155" gradientUnits="userSpaceOnUse">
<stop stop-color="#405AFF"/>
<stop offset="1" stop-color="#0A1039"/>
</linearGradient>
</defs>
</svg>
