<svg width="428" height="145" viewBox="0 0 428 145" fill="none" xmlns="http://www.w3.org/2000/svg">
<path d="M126.629 134L119.129 112.85H123.959L129.329 129.17H128.039L133.889 112.85H137.309L142.679 129.17H141.479L147.179 112.85H151.709L144.149 134H140.339L135.149 118.97H135.839L130.469 134H126.629ZM159.885 134.33C157.245 134.33 155.185 133.62 153.705 132.2C152.225 130.78 151.485 128.85 151.485 126.41C151.485 124.83 151.795 123.45 152.415 122.27C153.055 121.09 153.935 120.17 155.055 119.51C156.195 118.83 157.525 118.49 159.045 118.49C160.545 118.49 161.795 118.81 162.795 119.45C163.815 120.09 164.575 120.99 165.075 122.15C165.595 123.29 165.855 124.62 165.855 126.14V127.19H155.205V124.94H162.555L162.045 125.36C162.045 124.1 161.785 123.15 161.265 122.51C160.765 121.85 160.035 121.52 159.075 121.52C158.015 121.52 157.195 121.91 156.615 122.69C156.055 123.47 155.775 124.59 155.775 126.05V126.53C155.775 128.01 156.135 129.11 156.855 129.83C157.595 130.55 158.655 130.91 160.035 130.91C160.855 130.91 161.625 130.81 162.345 130.61C163.085 130.39 163.785 130.05 164.445 129.59L165.705 132.59C164.945 133.15 164.065 133.58 163.065 133.88C162.085 134.18 161.025 134.33 159.885 134.33ZM178.029 134.33C176.809 134.33 175.719 134.03 174.759 133.43C173.819 132.83 173.189 132.03 172.869 131.03H173.199V134H168.729V111.92H173.259V121.64H172.869C173.209 120.68 173.849 119.92 174.789 119.36C175.749 118.78 176.829 118.49 178.029 118.49C179.369 118.49 180.539 118.81 181.539 119.45C182.539 120.09 183.319 121 183.879 122.18C184.459 123.36 184.749 124.78 184.749 126.44C184.749 128.08 184.459 129.49 183.879 130.67C183.319 131.85 182.529 132.76 181.509 133.4C180.509 134.02 179.349 134.33 178.029 134.33ZM176.679 130.91C177.699 130.91 178.539 130.55 179.199 129.83C179.859 129.11 180.189 127.98 180.189 126.44C180.189 124.9 179.859 123.76 179.199 123.02C178.539 122.28 177.699 121.91 176.679 121.91C175.639 121.91 174.789 122.27 174.129 122.99C173.489 123.71 173.169 124.84 173.169 126.38C173.169 127.92 173.489 129.06 174.129 129.8C174.789 130.54 175.639 130.91 176.679 130.91ZM196.451 134V112.85H204.521C206.981 112.85 209.061 113.27 210.761 114.11C212.461 114.95 213.741 116.16 214.601 117.74C215.481 119.3 215.921 121.19 215.921 123.41C215.921 125.61 215.481 127.5 214.601 129.08C213.741 130.66 212.461 131.88 210.761 132.74C209.061 133.58 206.981 134 204.521 134H196.451ZM201.131 130.16H204.251C206.611 130.16 208.361 129.61 209.501 128.51C210.661 127.39 211.241 125.69 211.241 123.41C211.241 121.11 210.661 119.41 209.501 118.31C208.361 117.21 206.611 116.66 204.251 116.66H201.131V130.16ZM226.946 134.33C224.306 134.33 222.246 133.62 220.766 132.2C219.286 130.78 218.546 128.85 218.546 126.41C218.546 124.83 218.856 123.45 219.476 122.27C220.116 121.09 220.996 120.17 222.116 119.51C223.256 118.83 224.586 118.49 226.106 118.49C227.606 118.49 228.856 118.81 229.856 119.45C230.876 120.09 231.636 120.99 232.136 122.15C232.656 123.29 232.916 124.62 232.916 126.14V127.19H222.266V124.94H229.616L229.106 125.36C229.106 124.1 228.846 123.15 228.326 122.51C227.826 121.85 227.096 121.52 226.136 121.52C225.076 121.52 224.256 121.91 223.676 122.69C223.116 123.47 222.836 124.59 222.836 126.05V126.53C222.836 128.01 223.196 129.11 223.916 129.83C224.656 130.55 225.716 130.91 227.096 130.91C227.916 130.91 228.686 130.81 229.406 130.61C230.146 130.39 230.846 130.05 231.506 129.59L232.766 132.59C232.006 133.15 231.126 133.58 230.126 133.88C229.146 134.18 228.086 134.33 226.946 134.33ZM241.4 134.33C240.04 134.33 238.8 134.18 237.68 133.88C236.56 133.58 235.61 133.16 234.83 132.62L236 129.62C236.78 130.1 237.64 130.48 238.58 130.76C239.54 131.04 240.49 131.18 241.43 131.18C242.31 131.18 242.96 131.04 243.38 130.76C243.8 130.48 244.01 130.1 244.01 129.62C244.01 129.22 243.87 128.91 243.59 128.69C243.33 128.47 242.92 128.31 242.36 128.21L239.27 127.64C237.97 127.38 236.98 126.9 236.3 126.2C235.62 125.5 235.28 124.59 235.28 123.47C235.28 122.49 235.54 121.63 236.06 120.89C236.6 120.13 237.37 119.54 238.37 119.12C239.37 118.7 240.54 118.49 241.88 118.49C243.02 118.49 244.1 118.63 245.12 118.91C246.14 119.19 247.01 119.62 247.73 120.2L246.5 123.11C245.88 122.65 245.16 122.28 244.34 122C243.54 121.72 242.77 121.58 242.03 121.58C241.07 121.58 240.38 121.74 239.96 122.06C239.54 122.36 239.33 122.75 239.33 123.23C239.33 123.59 239.45 123.89 239.69 124.13C239.95 124.37 240.34 124.55 240.86 124.67L243.98 125.24C245.32 125.48 246.34 125.93 247.04 126.59C247.74 127.25 248.09 128.16 248.09 129.32C248.09 130.38 247.81 131.28 247.25 132.02C246.69 132.76 245.9 133.33 244.88 133.73C243.88 134.13 242.72 134.33 241.4 134.33ZM250.907 134V118.79H255.437V134H250.907ZM250.727 116.3V112.07H255.587V116.3H250.727ZM266.369 140.72C264.909 140.72 263.609 140.57 262.469 140.27C261.329 139.99 260.309 139.56 259.409 138.98L260.279 135.74C260.839 136.1 261.429 136.39 262.049 136.61C262.689 136.85 263.339 137.02 263.999 137.12C264.679 137.24 265.349 137.3 266.009 137.3C267.349 137.3 268.349 136.98 269.009 136.34C269.669 135.7 269.999 134.79 269.999 133.61V130.46H270.299C269.979 131.42 269.339 132.19 268.379 132.77C267.419 133.35 266.339 133.64 265.139 133.64C263.779 133.64 262.589 133.33 261.569 132.71C260.569 132.09 259.789 131.21 259.229 130.07C258.669 128.93 258.389 127.59 258.389 126.05C258.389 124.51 258.669 123.17 259.229 122.03C259.789 120.89 260.569 120.02 261.569 119.42C262.589 118.8 263.779 118.49 265.139 118.49C266.359 118.49 267.429 118.78 268.349 119.36C269.289 119.92 269.919 120.67 270.239 121.61L269.999 121.49L270.299 118.79H274.679C274.599 119.45 274.539 120.12 274.499 120.8C274.459 121.46 274.439 122.11 274.439 122.75V133.1C274.439 135.56 273.749 137.44 272.369 138.74C270.989 140.06 268.989 140.72 266.369 140.72ZM266.489 130.22C267.549 130.22 268.389 129.86 269.009 129.14C269.629 128.42 269.939 127.39 269.939 126.05C269.939 124.71 269.629 123.69 269.009 122.99C268.389 122.27 267.549 121.91 266.489 121.91C265.389 121.91 264.519 122.27 263.879 122.99C263.259 123.69 262.949 124.71 262.949 126.05C262.949 127.39 263.259 128.42 263.879 129.14C264.519 129.86 265.389 130.22 266.489 130.22ZM278.124 134V122.75C278.124 122.11 278.104 121.46 278.064 120.8C278.024 120.12 277.964 119.45 277.884 118.79H282.234L282.564 121.61H282.204C282.704 120.61 283.414 119.84 284.334 119.3C285.254 118.76 286.324 118.49 287.544 118.49C289.324 118.49 290.654 119.01 291.534 120.05C292.434 121.07 292.884 122.66 292.884 124.82V134H288.354V125.03C288.354 123.93 288.154 123.15 287.754 122.69C287.354 122.23 286.754 122 285.954 122C284.954 122 284.154 122.32 283.554 122.96C282.954 123.58 282.654 124.42 282.654 125.48V134H278.124Z" fill="white"/>
<path d="M233.596 0C244.642 0 253.596 8.95431 253.596 20V100H233.596V0Z" fill="white"/>
<path d="M308.596 80C308.596 91.0457 299.642 100 288.596 100H233.596V80H308.596Z" fill="white"/>
<path d="M113.596 20C113.596 8.95431 122.55 0 133.596 0H213.596C213.596 11.0457 204.642 20 193.596 20H113.596Z" fill="white"/>
<path d="M113.596 60C113.596 48.9543 122.55 40 133.596 40H213.596C213.596 51.0457 204.642 60 193.596 60H113.596Z" fill="white"/>
<path d="M113.596 100C113.596 88.9543 122.55 80 133.596 80H213.596C213.596 91.0457 204.642 100 193.596 100H113.596Z" fill="white"/>
<path fill-rule="evenodd" clip-rule="evenodd" d="M86.7196 0L29.1978 44.306L46.5918 57.7042L87.6116 26.1089L86.7196 0ZM0 66.7955L16.5451 54.0518L16.8105 54.2561L0.265456 67L0 66.7955Z" fill="white"/>
<path fill-rule="evenodd" clip-rule="evenodd" d="M86.7196 134L28.6263 89.2538L46.0203 75.8554L87.6116 107.891L86.7196 134ZM16.2389 79.3036L15.9735 79.508L0 67.2045L0.265456 67L16.2389 79.3036Z" fill="white"/>
<path fill-rule="evenodd" clip-rule="evenodd" d="M16.2389 79.3036L0.265456 67L16.8105 54.2561L17.3944 53.8064L34.5234 67L17.3944 80.1936L16.2389 79.3036Z" fill="white"/>
<path fill-rule="evenodd" clip-rule="evenodd" d="M56.7421 67.2045L73.871 54.0109L91 67.2045L73.871 80.398L56.7421 67.2045Z" fill="white"/>
<path fill-rule="evenodd" clip-rule="evenodd" d="M341.28 0L398.802 44.306L381.408 57.7042L340.388 26.1089L341.28 0ZM428 66.7955L411.455 54.0518L411.19 54.2561L427.735 67L428 66.7955Z" fill="white"/>
<path fill-rule="evenodd" clip-rule="evenodd" d="M341.28 134L399.374 89.2538L381.98 75.8554L340.388 107.891L341.28 134ZM411.761 79.3036L412.026 79.508L428 67.2045L427.735 67L411.761 79.3036Z" fill="white"/>
<path fill-rule="evenodd" clip-rule="evenodd" d="M411.761 79.3036L427.735 67L411.19 54.2561L410.606 53.8064L393.477 67L410.606 80.1936L411.761 79.3036Z" fill="white"/>
<path fill-rule="evenodd" clip-rule="evenodd" d="M371.258 67.2045L354.129 54.0109L337 67.2045L354.129 80.398L371.258 67.2045Z" fill="white"/>
</svg>
