<svg width="1031" height="165" viewBox="0 0 1031 165" fill="none" xmlns="http://www.w3.org/2000/svg">
<path fill-rule="evenodd" clip-rule="evenodd" d="M599.952 0C613.297 4.91261e-06 625.602 1.94574 636.825 5.89062C648.002 9.81977 657.649 15.4081 665.696 22.6914C673.813 29.9143 680.108 38.588 684.567 48.6719C689.046 58.8011 691.256 69.9061 691.256 81.9297C691.256 94.0159 689.047 105.212 684.575 115.463L684.571 115.472C680.118 125.609 673.835 134.369 665.736 141.717L665.737 141.718C657.693 149.074 648.047 154.767 636.866 158.833L636.855 158.837L636.845 158.841C625.616 162.856 613.305 164.836 599.952 164.836C586.536 164.836 574.191 162.857 562.96 158.841L562.933 158.831C551.818 154.765 542.181 149.073 534.081 141.729L534.075 141.723L534.069 141.718C526.032 134.368 519.784 125.607 515.332 115.472L515.328 115.463C510.857 105.212 508.647 94.0159 508.647 81.9297C508.647 69.9061 510.857 58.8011 515.336 48.6719C519.792 38.5958 526.048 29.9258 534.096 22.7031C542.204 15.4198 551.85 9.82626 562.973 5.89258L562.981 5.89062C574.205 1.94502 586.543 1.18054e-05 599.952 0ZM599.952 35.5391C592.262 35.5391 585.206 36.622 578.754 38.751L578.755 38.752C572.374 40.8791 566.881 43.9535 562.226 47.9521L562.223 47.9551C557.668 51.8596 554.073 56.6592 551.44 62.4053C548.912 68.0617 547.604 74.5452 547.604 81.9297C547.604 89.3196 548.914 95.8466 551.453 101.58C554.091 107.391 557.694 112.328 562.268 116.432C566.93 120.491 572.427 123.657 578.809 125.907L580.023 126.315C586.126 128.292 592.76 129.297 599.952 129.297C607.623 129.297 614.623 128.153 620.986 125.911L620.996 125.907C627.454 123.653 632.949 120.485 637.538 116.432C642.116 112.325 645.721 107.383 648.36 101.566C650.959 95.8366 652.299 89.3148 652.299 81.9297C652.299 74.5438 650.959 68.0612 648.367 62.4053C645.733 56.6592 642.138 51.8596 637.582 47.9551L637.572 47.9453L637.56 47.9355C632.984 43.9539 627.505 40.8826 621.061 38.7549L621.05 38.752C614.668 36.6246 607.646 35.5391 599.952 35.5391Z" fill="white"/>
<path fill-rule="evenodd" clip-rule="evenodd" d="M193.811 2.05078C204.304 2.05081 212.811 10.5574 212.811 21.0508V90.1328C212.811 96.6677 213.705 102.357 215.414 107.256L215.743 108.15C217.431 112.567 219.808 116.27 222.854 119.32C226.159 122.565 230.278 125.097 235.297 126.874C240.324 128.589 246.316 129.492 253.342 129.492C260.298 129.492 266.259 128.59 271.288 126.874C276.381 125.094 280.49 122.563 283.717 119.336L283.729 119.323L283.742 119.312C287.054 116.056 289.57 112.062 291.27 107.256C292.98 102.357 293.873 96.6677 293.873 90.1328V21.0508C293.873 10.5574 302.38 2.05085 312.873 2.05078H313.83C324.324 2.05081 332.83 10.5574 332.83 21.0508V93.8438C332.83 104.326 331.059 113.968 327.45 122.714C323.843 131.453 318.588 138.977 311.697 145.241C304.796 151.515 296.392 156.296 286.572 159.639C276.765 162.999 265.67 164.641 253.342 164.641C241.399 164.641 230.586 163.101 220.952 159.952L220.014 159.64C210.255 156.296 201.886 151.512 194.988 145.241C188.097 138.977 182.841 131.453 179.235 122.714C175.625 113.968 173.854 104.326 173.854 93.8438V21.0508C173.854 10.5574 182.361 2.05085 192.854 2.05078H193.811ZM208.811 21.0508L208.806 20.6699C208.805 20.6403 208.803 20.6107 208.802 20.5811C208.807 20.7371 208.811 20.8936 208.811 21.0508ZM328.83 21.0508L328.826 20.6699C328.825 20.6403 328.823 20.6107 328.822 20.5811C328.827 20.7371 328.83 20.8936 328.83 21.0508Z" fill="white"/>
<path fill-rule="evenodd" clip-rule="evenodd" d="M90.6498 2.05078C97.9364 2.0508 104.581 6.21786 107.754 12.7773L167.345 135.979C173.321 148.335 164.32 162.687 150.595 162.688C143.414 162.687 136.873 158.554 133.79 152.068L126.631 137.004H51.35L66.8539 103.516H110.618L83.9916 47.5869L63.5492 91.7031L63.5141 91.6875L38.5141 145.688L38.556 145.707L35.7592 151.789C32.703 158.432 26.0593 162.687 18.7475 162.688C5.02859 162.687 -4.0331 148.421 1.79824 136.003L59.5736 12.9746C62.7044 6.30786 69.4066 2.0509 76.7719 2.05078H90.6498ZM18.7475 158.688L19.268 158.679L19.2836 158.678C19.1054 158.684 18.9266 158.688 18.7475 158.688Z" fill="white"/>
<path fill-rule="evenodd" clip-rule="evenodd" d="M430.26 2.05078C442.232 2.05078 452.769 3.31166 461.808 5.91016C470.817 8.4355 478.471 12.1719 484.645 17.21C490.805 22.2373 495.407 28.3966 498.399 35.6494L498.679 36.3271C501.528 43.3605 502.913 51.1931 502.913 59.7617C502.913 65.7503 502.19 71.5008 500.728 77L500.724 77.0127C499.25 82.4884 496.963 87.5626 493.865 92.2178C490.812 96.9032 486.961 101.063 482.345 104.7L482.316 104.724C478.878 107.38 475.028 109.682 470.785 111.646L505.494 162.688H457.897L429.184 119.325L387.58 119.238V143.688C387.58 154.181 379.074 162.687 368.58 162.688H367.623C357.13 162.687 348.623 154.181 348.623 143.688V21.0508C348.623 10.5574 357.13 2.05085 367.623 2.05078H430.26ZM387.58 84.4727H431.041C436.603 84.4727 441.294 83.8217 445.177 82.6045L445.185 82.6025L445.193 82.5996C449.211 81.3588 452.385 79.6672 454.828 77.6045L454.844 77.5898L454.861 77.5762C457.358 75.5133 459.168 73.0554 460.345 70.167L460.352 70.1494L460.359 70.1328C461.628 67.0979 462.295 63.6594 462.295 59.7617C462.295 52.2601 459.781 46.9251 455.029 43.1758L455.007 43.1582C450.162 39.282 442.404 37.0039 431.041 37.0039H387.58V84.4727Z" fill="white"/>
<path fill-rule="evenodd" clip-rule="evenodd" d="M785.268 2.05078C797.24 2.05078 807.777 3.31166 816.816 5.91016C825.825 8.4355 833.479 12.1719 839.653 17.21C845.822 22.2444 850.428 28.4136 853.42 35.6797H853.418C856.448 42.879 857.92 50.929 857.92 59.7617C857.92 65.7503 857.198 71.5008 855.736 77L855.732 77.0127C854.258 82.4884 851.97 87.5626 848.872 92.2178C845.82 96.9032 841.969 101.063 837.353 104.7L837.324 104.724C833.886 107.38 830.036 109.682 825.792 111.646L860.501 162.688H812.905L784.192 119.325L742.588 119.238V143.688C742.588 154.181 734.082 162.687 723.588 162.688H722.631C712.138 162.687 703.631 154.181 703.631 143.688V21.0508C703.631 10.5574 712.138 2.05085 722.631 2.05078H785.268ZM742.588 84.4727H786.049C791.611 84.4727 796.301 83.8217 800.185 82.6045L800.193 82.6025L800.201 82.5996C804.218 81.3588 807.392 79.6673 809.835 77.6045L809.852 77.5898L809.869 77.5762C812.366 75.5133 814.176 73.0554 815.353 70.167L815.36 70.1494L815.367 70.1328C816.636 67.0979 817.303 63.6594 817.303 59.7617C817.303 52.2601 814.789 46.9251 810.036 43.1758L810.015 43.1582C805.169 39.282 797.412 37.0039 786.049 37.0039H742.588V84.4727Z" fill="white"/>
<path fill-rule="evenodd" clip-rule="evenodd" d="M952.095 2.05078C959.382 2.0508 966.027 6.21786 969.2 12.7773L1028.79 135.979C1034.77 148.335 1025.77 162.687 1012.04 162.688C1004.86 162.687 998.318 158.554 995.236 152.068L988.077 137.004H912.888L928.391 103.516H972.063L945.437 47.5869L919.522 103.516H919.576L904.072 137.004H904.006L897.204 151.789C894.148 158.432 887.505 162.687 880.193 162.688C866.474 162.687 857.412 148.421 863.244 136.003L921.019 12.9746C924.15 6.30787 930.852 2.0509 938.217 2.05078H952.095ZM880.193 158.688L880.713 158.679L880.729 158.678C880.551 158.684 880.372 158.688 880.193 158.688Z" fill="white"/>
</svg>
