<svg width="1920" height="1234" viewBox="0 0 1920 1234" fill="none" xmlns="http://www.w3.org/2000/svg">
<path d="M1850 0C1888.66 0 1920 31.3401 1920 70V1010C1920 1048.66 1888.66 1080 1850 1080H70C31.3401 1080 0 1048.66 0 1010V70C0 31.3401 31.3401 0 70 0H1850ZM128.062 86.8457C108.732 86.8457 93.0615 102.516 93.0615 121.846V960.382C93.0617 979.712 108.732 995.382 128.062 995.382H1791.94C1811.27 995.382 1826.94 979.712 1826.94 960.382V121.846C1826.94 102.516 1811.27 86.8457 1791.94 86.8457H128.062Z" fill="white"/>
<rect x="610" y="1159" width="700" height="75" rx="35" fill="white"/>
<path d="M159 151L236.678 265.744L297.21 141.101L159 151ZM1761 929L1683.32 814.256L1622.79 938.899L1761 929ZM256.15 198.18L250.907 208.974L1658.61 892.614L1663.85 881.82L1669.09 871.026L261.392 187.386L256.15 198.18Z" fill="white"/>
</svg>
