<svg width="1761" height="1432" viewBox="0 0 1761 1432" fill="none" xmlns="http://www.w3.org/2000/svg">
<path fill-rule="evenodd" clip-rule="evenodd" d="M1678.05 184C1729.44 184 1768.17 230.728 1758.63 281.225L1635.62 932.225C1628.3 970.955 1594.46 999 1555.04 999H552.722C514.087 999 480.693 972.031 472.559 934.262L332.375 283.262C321.378 232.194 360.299 184 412.537 184H1678.05ZM432.967 239C407.344 239 388.328 262.754 393.936 287.755L534.133 912.755C538.23 931.019 554.445 944 573.163 944H1532.34C1551.45 944 1567.89 930.478 1571.58 911.725L1694.61 286.726C1699.47 262.008 1680.55 239 1655.36 239H432.967Z" fill="white"/>
<rect x="402" y="421" width="1305" height="75" fill="white"/>
<rect x="750" y="225" width="739" height="75" transform="rotate(90 750 225)" fill="white"/>
<path d="M331.843 13.0002L589.716 1198.27L531.939 1210.68L274.554 13.0002L331.843 13.0002Z" fill="white"/>
<path d="M0 15C0 6.71573 6.71573 0 15 0H317C325.284 0 332 6.71573 332 15V50H15C6.71573 50 0 43.2843 0 35V15Z" fill="white"/>
<rect x="1434" y="225" width="739" height="75" transform="rotate(90 1434 225)" fill="white"/>
<rect x="1092" y="225" width="739" height="75" transform="rotate(90 1092 225)" fill="white"/>
<rect x="455" y="679" width="1200" height="75" fill="white"/>
<path d="M541 1179C610.036 1179 666 1234.96 666 1304C666 1373.04 610.036 1429 541 1429C471.964 1429 416 1373.04 416 1304C416 1234.96 471.964 1179 541 1179ZM541 1221C495.16 1221 458 1258.16 458 1304C458 1349.84 495.16 1387 541 1387C586.84 1387 624 1349.84 624 1304C624 1258.16 586.84 1221 541 1221Z" fill="white"/>
<path d="M1559 1182C1628.04 1182 1684 1237.96 1684 1307C1684 1376.04 1628.04 1432 1559 1432C1489.96 1432 1434 1376.04 1434 1307C1434 1237.96 1489.96 1182 1559 1182ZM1559 1224C1513.16 1224 1476 1261.16 1476 1307C1476 1352.84 1513.16 1390 1559 1390C1604.84 1390 1642 1352.84 1642 1307C1642 1261.16 1604.84 1224 1559 1224Z" fill="white"/>
<path d="M1554 1224.15C1530.34 1225.55 1509.35 1236.87 1495.12 1254H607.254C599.994 1244.4 590.695 1236.42 580 1230.72V1182H1554V1224.15Z" fill="white"/>
</svg>
