<svg width="1726" height="2173" viewBox="0 0 1726 2173" fill="none" xmlns="http://www.w3.org/2000/svg">
<path d="M682 0C1058.66 0 1364 305.342 1364 682C1364 1058.66 1058.66 1364 682 1364C305.342 1364 0 1058.66 0 682C0 305.342 305.342 0 682 0ZM681.5 86C352.614 86 86 352.614 86 681.5C86 1010.39 352.614 1277 681.5 1277C1010.39 1277 1277 1010.39 1277 681.5C1277 352.614 1010.39 86 681.5 86Z" fill="white"/>
<rect x="977" y="1238.09" width="156.114" height="1120.29" rx="60" transform="rotate(-33.4672 977 1238.09)" fill="white"/>
<path d="M864.919 210.66C874.978 200.645 890.283 197.926 903.063 204.101C1033.11 266.938 1089.75 323.65 1142.48 439.048C1148.38 451.96 1145.4 467.162 1135.34 477.179C1117.26 495.178 1086.59 488.081 1076.59 464.612C1032.5 361.118 979.296 309.978 877.553 268.411C854.192 258.866 847.036 228.466 864.919 210.66Z" fill="white"/>
</svg>
