<svg width="509" height="512" viewBox="0 0 509 512" fill="none" xmlns="http://www.w3.org/2000/svg">
<path d="M506.199 301.608L451.43 253.296L504.262 202.897C505.214 201.99 505.91 200.847 506.279 199.585C506.647 198.322 506.676 196.985 506.361 195.708C506.043 194.43 505.394 193.257 504.479 192.309C503.564 191.361 502.416 190.671 501.15 190.307L430.834 170.015L456.822 101.959C457.291 100.731 457.426 99.4001 457.215 98.1024C457.003 96.8047 456.452 95.586 455.618 94.57C454.779 93.5505 453.688 92.7687 452.453 92.3025C451.218 91.8363 449.883 91.702 448.58 91.913L376.306 103.565L370.428 31.004C370.32 29.6918 369.868 28.4312 369.117 27.3495C368.367 26.2678 367.344 25.4032 366.153 24.843C364.958 24.2798 363.637 24.039 362.321 24.1444C361.004 24.2499 359.738 24.6979 358.649 25.444L298.383 66.786L261.774 3.74201C261.11 2.60216 260.158 1.65664 259.014 0.999964C257.869 0.343291 256.573 -0.00151952 255.254 5.21038e-06C253.935 -0.00154593 252.638 0.343263 251.494 0.999947C250.35 1.65663 249.399 2.60217 248.735 3.74201L206.712 76.11L134.022 34.157C132.878 33.4972 131.581 33.1484 130.26 33.1453C128.939 33.1421 127.641 33.4847 126.494 34.139C125.35 34.7898 124.398 35.731 123.734 36.8676C123.07 38.0042 122.718 39.2958 122.714 40.612L122.538 113.407L49.5727 107.393C48.2579 107.284 46.9376 107.522 45.7433 108.082C44.549 108.643 43.5224 109.506 42.7657 110.587C42.0126 111.665 41.5583 112.922 41.449 114.233C41.3398 115.543 41.5795 116.859 42.1437 118.046L73.3857 183.881L4.87269 209.562C3.6388 210.023 2.54803 210.8 1.71014 211.817C0.872255 212.833 0.316808 214.052 0.0996914 215.351C-0.114693 216.649 0.0180883 217.98 0.484558 219.21C0.951028 220.44 1.73458 221.525 2.75569 222.354L59.3747 268.506L8.56169 320.916C7.64541 321.859 6.99482 323.028 6.67589 324.304C6.35696 325.579 6.38104 326.917 6.74569 328.18C7.11378 329.445 7.80831 330.591 8.75952 331.503C9.71073 332.415 10.8851 333.06 12.1647 333.374L83.2197 350.925L59.9247 419.936C59.5045 421.182 59.4213 422.517 59.6837 423.805C59.9461 425.094 60.5447 426.29 61.4187 427.272C62.2965 428.258 63.4173 428.997 64.6695 429.415C65.9218 429.833 67.2617 429.915 68.5557 429.654L140.316 415.211L149.037 487.489C149.196 488.796 149.697 490.038 150.489 491.09C151.282 492.141 152.337 492.966 153.55 493.479C154.765 493.996 156.094 494.186 157.406 494.029C158.717 493.873 159.965 493.376 161.025 492.588L219.621 448.941L258.676 508.507C259.384 509.62 260.372 510.528 261.541 511.14C262.71 511.752 264.019 512.046 265.338 511.993C266.656 511.943 267.938 511.548 269.055 510.848C270.173 510.147 271.087 509.166 271.706 508.001L305.813 445.596L367.652 484.57C368.769 485.274 370.052 485.673 371.371 485.727C372.691 485.781 374.002 485.489 375.174 484.88C376.342 484.274 377.33 483.37 378.038 482.26C378.745 481.15 379.147 479.873 379.204 478.558L382.235 405.824L454.909 414.664C456.219 414.824 457.547 414.637 458.763 414.124C459.978 413.61 461.038 412.787 461.837 411.737C462.631 410.689 463.134 409.45 463.295 408.145C463.455 406.84 463.268 405.516 462.751 404.307L434.115 337.31L503.58 314.307C504.831 313.895 505.951 313.16 506.829 312.177C507.706 311.194 508.309 309.998 508.577 308.708C508.841 307.42 508.761 306.085 508.343 304.838C507.925 303.591 507.186 302.477 506.199 301.608Z" fill="white"/>
<path d="M252.715 409.64C338.357 409.64 407.784 340.267 407.784 254.691C407.784 169.115 338.357 99.7419 252.715 99.7419C167.072 99.7419 97.6457 169.115 97.6457 254.691C97.6457 340.267 167.072 409.64 252.715 409.64Z" fill="white"/>
<path d="M252.719 99.7429C248.835 99.7429 244.987 99.8899 241.176 100.171C321.426 106.072 384.701 172.996 384.701 254.692C384.701 336.387 321.426 403.311 241.176 409.213C244.987 409.493 248.836 409.641 252.719 409.641C338.36 409.641 407.787 340.268 407.787 254.693C407.787 169.116 338.36 99.7429 252.719 99.7429Z" fill="white"/>
</svg>
